<svg width="11" height="15" viewBox="0 0 11 15" fill="none" xmlns="http://www.w3.org/2000/svg">
<path fill-rule="evenodd" clip-rule="evenodd" d="M5.23063 14.8185C5.23079 14.8185 5.2309 14.8186 5.45494 14.5004L5.23063 14.8185ZM5.67924 14.8185L5.68064 14.8174L5.68419 14.815L5.69656 14.8061C5.70718 14.7985 5.72248 14.7874 5.74209 14.773C5.78132 14.7442 5.83794 14.7019 5.9095 14.647C6.05256 14.5369 6.25546 14.3757 6.49829 14.1681C6.9834 13.7533 7.6306 13.1512 8.2788 12.4013C9.56588 10.9124 10.903 8.78752 10.903 6.35821C10.903 4.9061 10.3296 3.51298 9.30815 2.48547C8.28659 1.4579 6.90059 0.880188 5.45494 0.880188C4.00928 0.880188 2.62329 1.4579 1.60173 2.48547C0.580288 3.51298 0.00683594 4.9061 0.00683594 6.35821C0.00683594 8.78752 1.34399 10.9124 2.63107 12.4013C3.27928 13.1512 3.92647 13.7533 4.41159 14.1681C4.65442 14.3757 4.85732 14.5369 5.00037 14.647C5.07194 14.7019 5.12856 14.7442 5.16778 14.773C5.1874 14.7874 5.20269 14.7985 5.21331 14.8061L5.22569 14.815L5.22923 14.8174L5.23063 14.8185C5.365 14.9131 5.54487 14.9131 5.67924 14.8185ZM5.45494 14.5004L5.67924 14.8185C5.67909 14.8185 5.67897 14.8186 5.45494 14.5004ZM7.40069 6.32829C7.40069 7.40289 6.52954 8.27404 5.45494 8.27404C4.38034 8.27404 3.50919 7.40289 3.50919 6.32829C3.50919 5.25369 4.38034 4.38254 5.45494 4.38254C6.52954 4.38254 7.40069 5.25369 7.40069 6.32829Z" fill="#726868"/>
</svg>
