<svg width="17" height="15" viewBox="0 0 17 15" fill="none" xmlns="http://www.w3.org/2000/svg">
<path d="M1.73036 5.36074C1.73036 2.85423 3.39907 0.529968 5.68411 0.529968C7.26982 0.529968 8.44646 1.57278 9.17275 3.05211C9.899 1.57287 11.0756 0.529968 12.6614 0.529968C14.9467 0.529968 16.6151 2.85462 16.6151 5.36074C16.6151 10.7255 9.17275 14.5392 9.17275 14.5392C9.17275 14.5392 4.15951 12.1257 2.36213 8.16692H6.80204L7.50776 6.91239L8.33207 9.79759L10.2625 7.31568H12.6751V6.44011H9.83421L8.70007 7.89829L7.77323 4.65446L6.29001 7.29134H2.02798C2.12078 7.59096 2.2332 7.88292 2.36213 8.16692L0.416992 8.16687V7.2913L2.02798 7.29134C1.83824 6.67883 1.73036 6.03432 1.73036 5.36074Z" fill="#726868"/>
</svg>
