<svg width="11" height="15" viewBox="0 0 11 15" fill="none" xmlns="http://www.w3.org/2000/svg">
<path d="M6.56214 3.73963V0.0184326H1.08979C0.725876 0.0184326 0.433105 0.311203 0.433105 0.675115V13.371C0.433105 13.7349 0.725876 14.0276 1.08979 14.0276H10.2833C10.6472 14.0276 10.94 13.7349 10.94 13.371V4.39631H7.21882C6.85764 4.39631 6.56214 4.10081 6.56214 3.73963ZM8.31329 10.197C8.31329 10.3776 8.16554 10.5253 7.98495 10.5253H3.38817C3.20759 10.5253 3.05983 10.3776 3.05983 10.197V9.97811C3.05983 9.79752 3.20759 9.64977 3.38817 9.64977H7.98495C8.16554 9.64977 8.31329 9.79752 8.31329 9.97811V10.197ZM8.31329 8.44585C8.31329 8.62644 8.16554 8.77419 7.98495 8.77419H3.38817C3.20759 8.77419 3.05983 8.62644 3.05983 8.44585V8.22696C3.05983 8.04637 3.20759 7.89862 3.38817 7.89862H7.98495C8.16554 7.89862 8.31329 8.04637 8.31329 8.22696V8.44585ZM8.31329 6.47581V6.6947C8.31329 6.87529 8.16554 7.02304 7.98495 7.02304H3.38817C3.20759 7.02304 3.05983 6.87529 3.05983 6.6947V6.47581C3.05983 6.29522 3.20759 6.14746 3.38817 6.14746H7.98495C8.16554 6.14746 8.31329 6.29522 8.31329 6.47581ZM10.94 3.35383V3.52074H7.43771V0.0184326H7.60462C7.77974 0.0184326 7.94664 0.086837 8.06977 0.209965L10.7485 2.89142C10.8716 3.01454 10.94 3.18145 10.94 3.35383Z" fill="#FF7301"/>
</svg>
