<svg width="15" height="15" viewBox="0 0 15 15" fill="none" xmlns="http://www.w3.org/2000/svg">
<path d="M7.31109 5.19974C6.53737 5.19974 5.91016 5.82696 5.91016 6.60067C5.91016 7.37439 6.53737 8.00161 7.31109 8.00161C8.08481 8.00161 8.71203 7.37439 8.71203 6.60067C8.71203 5.82696 8.08481 5.19974 7.31109 5.19974Z" fill="#726868"/>
<path fill-rule="evenodd" clip-rule="evenodd" d="M8.71225 2.39777L7.7783 2.39778V0.529968H6.84434V2.39779H5.9103C2.81548 2.39782 0.306649 4.90667 0.306641 8.00149C0.306632 11.0963 2.8155 13.6052 5.91035 13.6052H8.71229C8.83422 13.6052 8.95531 13.6014 9.07542 13.5936L12.8019 14.5252C12.961 14.565 13.1293 14.5184 13.2453 14.4024C13.3613 14.2864 13.4079 14.1181 13.3681 13.959L12.8292 11.8032C13.7517 10.8046 14.316 9.46861 14.316 8.00149C14.316 4.90662 11.8071 2.39774 8.71225 2.39777ZM4.97643 6.60069C4.97643 5.31117 6.0218 4.2658 7.31132 4.2658C8.60085 4.2658 9.64621 5.31117 9.64621 6.60069C9.64621 7.89022 8.60085 8.93559 7.31132 8.93559C6.0218 8.93559 4.97643 7.89022 4.97643 6.60069ZM7.3113 11.7375C6.31785 11.7375 5.40377 11.3922 4.68434 10.8155L5.26849 10.0868C5.82821 10.5355 6.53781 10.8035 7.3113 10.8035C8.08479 10.8035 8.79439 10.5355 9.3541 10.0868L9.93826 10.8155C9.21883 11.3922 8.30474 11.7375 7.3113 11.7375Z" fill="#726868"/>
</svg>
